<svg width="393" height="116" viewBox="0 0 393 116" fill="none" xmlns="http://www.w3.org/2000/svg">
<g clip-path="url(#clip0_12_624)">
<path d="M58.454 0C26.2429 0 -0.0045166 26.0082 -0.0045166 58.036C-0.0045166 90.0638 26.2384 116.022 58.454 116.022C90.6697 116.022 116.913 90.0143 116.913 58.036C116.907 42.6457 110.746 27.8875 99.7838 17.0049C88.822 6.12236 73.9564 0.00596176 58.454 0ZM58.454 111.276C44.2306 111.259 30.5946 105.642 20.5376 95.6572C10.4805 85.672 4.82371 72.1341 4.80812 58.0135C4.80812 28.6401 28.8486 4.72836 58.454 4.72836C88.0594 4.72836 112.104 28.6581 112.104 58.0315C112.082 72.149 106.421 85.6816 96.3644 95.6625C86.3074 105.643 72.6744 111.258 58.454 111.276Z" fill="url(#paint0_linear_12_624)"/>
<path d="M94.3086 87.7289C88.1176 95.0793 79.7912 100.352 70.4675 102.827C70.2998 91.499 70.1729 88.5162 70.0506 85.8843C69.756 79.2844 64.8437 74.5561 58.4404 74.6056V74.1107V74.6056H58.2818C51.8378 74.727 47.0297 79.3609 46.7804 85.9293C46.7034 88.3452 46.5357 90.9636 46.4587 102.827C37.1062 100.363 28.758 95.0709 22.5723 87.6839C24.0133 68.4016 25.4997 49.3217 26.9408 30.0393H35.7912V34.4707L53.7275 34.5922C53.8181 33.1166 53.8952 31.7624 54.0221 30.0933H62.6685C62.8271 31.5239 62.9494 32.8781 63.1217 34.4797H80.8541C80.9311 32.9726 81.0218 31.6184 81.1033 30.0483H89.8585C91.3449 49.1897 92.8283 68.4165 94.3086 87.7289Z" fill="url(#paint1_linear_12_624)"/>
<path d="M144.873 35.2626H133.884V17.7168H164.636V98.1979H144.873V35.2626Z" fill="#00012E"/>
<path d="M179.504 17.7393H230.259V32.8376H198.496V49.1507H222.251V63.8082H198.496V98.2608H179.504V17.7393Z" fill="#00012E"/>
<path d="M268.438 98.2608C250.23 98.2608 236.463 86.1362 236.463 66.6289C236.463 47.1216 250.565 34.9971 268.637 34.9971C286.841 34.9971 300.812 47.1441 300.812 66.6289C300.812 86.1137 286.646 98.2608 268.438 98.2608ZM268.438 81.9477C275.208 81.9477 281.539 76.9989 281.539 66.6514C281.539 56.1825 275.322 51.3326 268.66 51.3326C261.776 51.3326 255.781 56.1825 255.781 66.6514C255.781 76.9899 261.554 81.9477 268.438 81.9477Z" fill="#00012E"/>
<path d="M329.955 98.2609H310.959V36.7607H329.955V47.0183C334.283 40.5173 341.058 36.1084 349.383 36.1084V56.0566H344.153C335.158 56.0566 329.942 59.1428 329.942 69.7243L329.955 98.2609Z" fill="#00012E"/>
<path d="M361.469 52.4169H353.923V36.7606H361.469V21.7703H380.456V36.7606H392.887V52.4169H380.456V77.1069C380.456 80.7465 382.011 82.2897 386.23 82.2897H393V98.2608H383.343C370.464 98.2608 361.469 92.8621 361.469 76.8775V52.4169Z" fill="#00012E"/>
</g>
<defs>
<linearGradient id="paint0_linear_12_624" x1="40.2277" y1="117.701" x2="66.6203" y2="29.9734" gradientUnits="userSpaceOnUse">
<stop stop-color="#2280EE"/>
<stop offset="0.24" stop-color="#267CEE"/>
<stop offset="0.49" stop-color="#3371F0"/>
<stop offset="0.75" stop-color="#485EF1"/>
<stop offset="1" stop-color="#6445F4"/>
</linearGradient>
<linearGradient id="paint1_linear_12_624" x1="47.1475" y1="103.066" x2="70.8302" y2="24.3428" gradientUnits="userSpaceOnUse">
<stop stop-color="#2280EE"/>
<stop offset="0.24" stop-color="#267CEE" stop-opacity="0.99"/>
<stop offset="0.49" stop-color="#3371F0" stop-opacity="0.97"/>
<stop offset="0.75" stop-color="#485EF1" stop-opacity="0.94"/>
<stop offset="1" stop-color="#6445F4" stop-opacity="0.9"/>
</linearGradient>
<clipPath id="clip0_12_624">
<rect width="393" height="116" fill="white"/>
</clipPath>
</defs>
</svg>
