<?xml version="1.0" encoding="UTF-8"?><svg xmlns="http://www.w3.org/2000/svg" xmlns:xlink="http://www.w3.org/1999/xlink" width="224.87999pt" zoomAndPan="magnify" viewBox="0 0 224.87999 63.749997" height="63.749997pt" preserveAspectRatio="xMidYMid meet" version="1.2"><defs><g/></defs><g xml:id="surface1" id="surface1"><g style="fill:rgb(16.859436%,55.688477%,94.898987%);fill-opacity:1;"><g transform="translate(3.735579, 57.273687)"><path style="stroke:none;" d="M 17.472656 0.0351562 C 18.484375 2.121094 20.234375 2.085938 21.210938 0 L 36.933594 -34.035156 C 37.371094 -34.980469 36.933594 -35.652344 35.886719 -35.652344 L 29.695312 -35.652344 C 28.917969 -35.652344 28.414062 -35.382812 28.113281 -34.609375 L 19.359375 -12.792969 L 10.402344 -34.609375 C 10.101562 -35.351562 9.5625 -35.652344 8.785156 -35.652344 L 2.660156 -35.652344 C 1.617188 -35.652344 1.210938 -34.980469 1.648438 -34.035156 Z M 17.472656 0.0351562 "/></g></g><g style="fill:rgb(16.859436%,55.688477%,94.898987%);fill-opacity:1;"><g transform="translate(42.345894, 57.273687)"><path style="stroke:none;" d="M 8.921875 -39.085938 C 11.953125 -39.085938 14.207031 -41.375 14.207031 -44.40625 C 14.207031 -47.402344 11.953125 -49.757812 8.921875 -49.757812 C 5.890625 -49.757812 3.601562 -47.402344 3.601562 -44.40625 C 3.601562 -41.375 5.890625 -39.085938 8.921875 -39.085938 Z M 11.917969 0 C 12.828125 0 13.296875 -0.472656 13.296875 -1.378906 L 13.296875 -34.273438 C 13.296875 -35.148438 12.828125 -35.652344 11.917969 -35.652344 L 5.992188 -35.652344 C 5.117188 -35.652344 4.613281 -35.148438 4.613281 -34.273438 L 4.613281 -1.378906 C 4.613281 -0.472656 5.117188 0 5.992188 0 Z M 11.917969 0 "/></g></g><g style="fill:rgb(16.859436%,55.688477%,94.898987%);fill-opacity:1;"><g transform="translate(60.321401, 57.273687)"><path style="stroke:none;" d="M 15.148438 0.773438 C 21.949219 0.773438 28.683594 -1.988281 28.683594 -10.269531 C 28.683594 -16.09375 24.070312 -18.886719 19.730469 -20.972656 C 15.722656 -22.894531 11.953125 -24.140625 11.953125 -26.496094 C 11.953125 -28.382812 13.601562 -29.257812 16.023438 -29.257812 C 18.078125 -29.257812 20.738281 -28.648438 23.332031 -27.707031 C 24.207031 -27.40625 24.8125 -27.675781 25.082031 -28.550781 L 26.496094 -33.0625 C 26.832031 -33.9375 26.460938 -34.542969 25.652344 -34.777344 C 22.289062 -35.855469 18.820312 -36.394531 16.023438 -36.394531 C 9.425781 -36.394531 3.332031 -33.027344 3.332031 -25.554688 C 3.332031 -20.265625 7.507812 -17.539062 11.613281 -15.351562 C 15.6875 -13.164062 19.863281 -11.714844 19.863281 -9.5625 C 19.863281 -7.035156 17.910156 -6.195312 15.25 -6.195312 C 12.859375 -6.195312 9.832031 -6.835938 6.835938 -7.980469 C 5.890625 -8.316406 5.386719 -8.078125 5.082031 -7.238281 L 3.46875 -2.660156 C 3.164062 -1.886719 3.332031 -1.246094 4.375 -0.941406 C 8.25 0.203125 11.785156 0.773438 15.148438 0.773438 Z M 15.148438 0.773438 "/></g></g><g style="fill:rgb(16.859436%,55.688477%,94.898987%);fill-opacity:1;"><g transform="translate(91.930021, 57.273687)"><path style="stroke:none;" d="M 8.921875 -39.085938 C 11.953125 -39.085938 14.207031 -41.375 14.207031 -44.40625 C 14.207031 -47.402344 11.953125 -49.757812 8.921875 -49.757812 C 5.890625 -49.757812 3.601562 -47.402344 3.601562 -44.40625 C 3.601562 -41.375 5.890625 -39.085938 8.921875 -39.085938 Z M 11.917969 0 C 12.828125 0 13.296875 -0.472656 13.296875 -1.378906 L 13.296875 -34.273438 C 13.296875 -35.148438 12.828125 -35.652344 11.917969 -35.652344 L 5.992188 -35.652344 C 5.117188 -35.652344 4.613281 -35.148438 4.613281 -34.273438 L 4.613281 -1.378906 C 4.613281 -0.472656 5.117188 0 5.992188 0 Z M 11.917969 0 "/></g></g><g style="fill:rgb(16.859436%,55.688477%,94.898987%);fill-opacity:1;"><g transform="translate(109.905528, 57.273687)"><path style="stroke:none;" d="M 25.316406 -36.394531 C 20.839844 -36.394531 16.53125 -34.777344 13.332031 -31.847656 L 13.367188 -50.332031 C 13.367188 -51.242188 12.894531 -51.710938 11.984375 -51.710938 L 6.058594 -51.710938 C 5.183594 -51.710938 4.679688 -51.242188 4.679688 -50.332031 L 4.613281 -1.378906 C 4.613281 -0.472656 5.117188 0 5.992188 0 L 9.730469 0 C 10.503906 0 11.042969 -0.371094 11.246094 -1.210938 L 12.253906 -4.984375 C 15.417969 -1.3125 20.167969 0.773438 25.316406 0.773438 C 35.585938 0.773438 43.363281 -7.574219 43.363281 -17.808594 C 43.363281 -28.078125 35.585938 -36.394531 25.316406 -36.394531 Z M 23.871094 -7.003906 C 17.878906 -7.003906 13.027344 -11.851562 13.027344 -17.808594 C 13.027344 -23.800781 17.878906 -28.648438 23.871094 -28.648438 C 29.828125 -28.648438 34.675781 -23.800781 34.675781 -17.808594 C 34.675781 -11.851562 29.828125 -7.003906 23.871094 -7.003906 Z M 23.871094 -7.003906 "/></g></g><g style="fill:rgb(16.859436%,55.688477%,94.898987%);fill-opacity:1;"><g transform="translate(156.291759, 57.273687)"><path style="stroke:none;" d="M 15.554688 0.773438 C 17.238281 0.773438 19.054688 0.671875 21.007812 0 C 21.816406 -0.304688 22.117188 -0.976562 21.851562 -1.785156 L 20.671875 -6.027344 C 20.402344 -6.867188 19.828125 -7.171875 18.921875 -6.902344 C 18.078125 -6.632812 17.238281 -6.53125 16.597656 -6.53125 C 14.410156 -6.53125 13.027344 -7.742188 13.027344 -10.605469 L 13.027344 -50.332031 C 13.027344 -51.242188 12.558594 -51.710938 11.648438 -51.710938 L 5.722656 -51.710938 C 4.8125 -51.710938 4.34375 -51.242188 4.34375 -50.332031 L 4.34375 -9.59375 C 4.34375 -2.863281 8.957031 0.773438 15.554688 0.773438 Z M 15.554688 0.773438 "/></g></g><g style="fill:rgb(16.859436%,55.688477%,94.898987%);fill-opacity:1;"><g transform="translate(179.8215, 57.273687)"><path style="stroke:none;" d="M 20.90625 -36.394531 C 10.738281 -36.394531 3.0625 -29.089844 3.0625 -17.808594 C 3.0625 -6.398438 11.277344 0.773438 21.277344 0.773438 C 26.699219 0.773438 31.984375 -1.515625 35.957031 -5.691406 C 36.664062 -6.398438 36.664062 -7.070312 35.988281 -7.574219 L 32.691406 -11.210938 C 32.050781 -11.714844 31.546875 -11.683594 30.90625 -11.078125 C 28.246094 -8.347656 24.8125 -6.902344 21.511719 -6.902344 C 16.328125 -6.902344 11.785156 -10.371094 11.546875 -16.597656 L 36.898438 -16.597656 C 37.875 -16.597656 38.378906 -16.933594 38.378906 -18.144531 C 38.378906 -29.089844 31.074219 -36.394531 20.90625 -36.394531 Z M 21.074219 -29.222656 C 24.746094 -29.222656 28.3125 -27.234375 29.355469 -22.691406 L 12.152344 -22.691406 C 13.433594 -27.269531 17.507812 -29.222656 21.074219 -29.222656 Z M 21.074219 -29.222656 "/></g></g></g></svg>